solid OpenSCAD_Model
  facet normal 0 0 -1
    outer loop
      vertex -3.8 6.58179 0
      vertex 3.8 6.58179 0
      vertex -7.6 0 0
    endloop
  endfacet
  facet normal 0 0 -1
    outer loop
      vertex -7.6 0 0
      vertex 3.8 6.58179 0
      vertex 7.6 0 0
    endloop
  endfacet
  facet normal 0 0 -1
    outer loop
      vertex -7.6 0 0
      vertex 7.6 0 0
      vertex 3.8 -6.58179 0
    endloop
  endfacet
  facet normal 0 0 -1
    outer loop
      vertex -7.6 0 0
      vertex 3.8 -6.58179 0
      vertex -3.8 -6.58179 0
    endloop
  endfacet
  facet normal 0.866025 0.5 0
    outer loop
      vertex 3.8 6.58179 0
      vertex 3.8 6.58179 8
      vertex 7.6 0 8
    endloop
  endfacet
  facet normal 0.866025 0.5 0
    outer loop
      vertex 7.6 0 0
      vertex 3.8 6.58179 0
      vertex 7.6 0 8
    endloop
  endfacet
  facet normal 0 1 0
    outer loop
      vertex -3.8 6.58179 8
      vertex 3.8 6.58179 8
      vertex -3.8 6.58179 0
    endloop
  endfacet
  facet normal 0 1 0
    outer loop
      vertex -3.8 6.58179 0
      vertex 3.8 6.58179 8
      vertex 3.8 6.58179 0
    endloop
  endfacet
  facet normal -0.866025 0.5 0
    outer loop
      vertex -7.6 0 8
      vertex -3.8 6.58179 8
      vertex -7.6 0 0
    endloop
  endfacet
  facet normal -0.866025 0.5 0
    outer loop
      vertex -7.6 0 0
      vertex -3.8 6.58179 8
      vertex -3.8 6.58179 0
    endloop
  endfacet
  facet normal -0.866025 -0.5 0
    outer loop
      vertex -3.8 -6.58179 0
      vertex -3.8 -6.58179 8
      vertex -7.6 0 0
    endloop
  endfacet
  facet normal -0.866025 -0.5 0
    outer loop
      vertex -7.6 0 0
      vertex -3.8 -6.58179 8
      vertex -7.6 0 8
    endloop
  endfacet
  facet normal 0 -1 0
    outer loop
      vertex -3.8 -6.58179 0
      vertex 3.8 -6.58179 0
      vertex 3.8 -6.58179 8
    endloop
  endfacet
  facet normal 0 -1 0
    outer loop
      vertex -3.8 -6.58179 8
      vertex -3.8 -6.58179 0
      vertex 3.8 -6.58179 8
    endloop
  endfacet
  facet normal 0.866025 -0.5 0
    outer loop
      vertex 3.8 -6.58179 0
      vertex 7.6 0 0
      vertex 7.6 0 8
    endloop
  endfacet
  facet normal 0.866025 -0.5 0
    outer loop
      vertex 3.8 -6.58179 8
      vertex 3.8 -6.58179 0
      vertex 7.6 0 8
    endloop
  endfacet
  facet normal 0 0 1
    outer loop
      vertex -7.6 0 8
      vertex -3.8 -6.58179 8
      vertex 3.8 -6.58179 8
    endloop
  endfacet
  facet normal 0 0 1
    outer loop
      vertex 3.8 6.58179 8
      vertex -7.6 0 8
      vertex 7.6 0 8
    endloop
  endfacet
  facet normal 0 0 1
    outer loop
      vertex 7.6 0 8
      vertex -7.6 0 8
      vertex 3.8 -6.58179 8
    endloop
  endfacet
  facet normal 0 0 1
    outer loop
      vertex -3.8 6.58179 8
      vertex -7.6 0 8
      vertex 3.8 6.58179 8
    endloop
  endfacet
endsolid OpenSCAD_Model
